<svg version="1.0" xmlns="http://www.w3.org/2000/svg" width="170.667" height="170.667" viewBox="0 0 128 128"><path d="M47.5 2.4C35.7 5.6 27.6 10.3 19 19 6.7 31.4 1 44.4.5 61.5.1 74.1 1.7 81.7 7.1 92.8c7.7 16 23.9 28.9 42.2 33.5 9.3 2.4 26.4 1.6 36-1.7 21.6-7.3 35.9-24.8 39.3-48.1.9-5.5.7-22.2-.2-23.6-.3-.5-13.5-.9-30.5-.9H64v25h35.1l-.6 2.2c-2.8 9.3-9 16.3-18.4 20.6-7.5 3.5-19.5 4-27.5 1.2-22.4-7.7-33.1-33-22.8-54.1 9.8-20.2 35.7-28.1 53.3-16.3 2.8 1.9 5.4 3.4 5.8 3.4.3 0 4.4-3.7 8.9-8.3 5.3-5.3 8.1-8.8 7.7-9.8-.7-1.6-8-6.7-14.1-9.8C79.1 0 61.6-1.5 47.5 2.4z"/></svg>